<?xml version="1.0" encoding="utf-8"?>
<!-- Generator: Adobe Illustrator 21.1.0, SVG Export Plug-In . SVG Version: 6.00 Build 0)  -->
<svg version="1.1" id="svg-more-navigation" xmlns="http://www.w3.org/2000/svg" xmlns:xlink="http://www.w3.org/1999/xlink"
	 x="0px" y="0px" viewBox="0 0 21 5" style="enable-background:new 0 0 21 5;" xml:space="preserve">
<style type="text/css">
	.st0{fill:#FFFFFF;}
</style>
<path class="st0" d="M5,2.5C5,1.1,3.9,0,2.5,0S0,1.1,0,2.5S1.1,5,2.5,5S5,3.9,5,2.5 M13,2.5C13,1.1,11.9,0,10.5,0S8,1.1,8,2.5
	S9.1,5,10.5,5S13,3.9,13,2.5 M21,2.5C21,1.1,19.9,0,18.5,0S16,1.1,16,2.5S17.1,5,18.5,5S21,3.9,21,2.5"/>
</svg>
